<?xml version="1.0" encoding="UTF-8" standalone="no"?>
<!-- Created with Inkscape (http://www.inkscape.org/) -->

<svg
   xmlns:dc="http://purl.org/dc/elements/1.1/"
   xmlns:cc="http://creativecommons.org/ns#"
   xmlns:rdf="http://www.w3.org/1999/02/22-rdf-syntax-ns#"
   xmlns:svg="http://www.w3.org/2000/svg"
   xmlns="http://www.w3.org/2000/svg"
   xmlns:sodipodi="http://sodipodi.sourceforge.net/DTD/sodipodi-0.dtd"
   xmlns:inkscape="http://www.inkscape.org/namespaces/inkscape"
   width="64"
   height="64"
   viewBox="0 0 16.933332 16.933334"
   version="1.1"
   id="svg8"
   inkscape:version="0.92.3 (3ce5693, 2018-03-11)"
   sodipodi:docname="numbers.svg"
   inkscape:export-filename="C:\dev\godot\tingting\src\img\ball_killer.png"
   inkscape:export-xdpi="90"
   inkscape:export-ydpi="90">
  <defs
     id="defs2" />
  <sodipodi:namedview
     id="base"
     pagecolor="#ffffff"
     bordercolor="#666666"
     borderopacity="1.0"
     inkscape:pageopacity="0.0"
     inkscape:pageshadow="2"
     inkscape:zoom="1.6439009"
     inkscape:cx="275.97345"
     inkscape:cy="-26.438287"
     inkscape:document-units="mm"
     inkscape:current-layer="layer1"
     showgrid="false"
     units="px"
     inkscape:window-width="1299"
     inkscape:window-height="713"
     inkscape:window-x="67"
     inkscape:window-y="27"
     inkscape:window-maximized="1"
     showguides="true"
     inkscape:guide-bbox="true"
     inkscape:measure-start="-6.21725e-15,63.2642"
     inkscape:measure-end="490.297,63.2642" />
  <metadata
     id="metadata5">
    <rdf:RDF>
      <cc:Work
         rdf:about="">
        <dc:format>image/svg+xml</dc:format>
        <dc:type
           rdf:resource="http://purl.org/dc/dcmitype/StillImage" />
        <dc:title />
      </cc:Work>
    </rdf:RDF>
  </metadata>
  <g
     inkscape:label="Layer 1"
     inkscape:groupmode="layer"
     id="layer1"
     transform="translate(0,-280.06665)">
    <text
       xml:space="preserve"
       style="font-style:normal;font-weight:normal;font-size:38.50318146px;line-height:0%;font-family:Ani;letter-spacing:0px;word-spacing:0px;fill:#ffffff;fill-opacity:1;stroke:#000000;stroke-width:0.84894168px;stroke-linecap:butt;stroke-linejoin:miter;stroke-opacity:1;-inkscape-font-specification:Ani;font-stretch:normal;font-variant:normal;"
       x="31.623318"
       y="334.11459"
       id="text917"><tspan
         sodipodi:role="line"
         id="tspan915"
         x="31.623318"
         y="334.11459"
         style="font-style:normal;font-variant:normal;font-weight:normal;font-stretch:normal;font-size:18.67671776px;line-height:1.25;font-family:Ani;-inkscape-font-specification:Ani;fill:#ffffff;fill-opacity:1;stroke:#000000;stroke-width:0.84894168px;stroke-opacity:1;">3</tspan></text>
    <text
       xml:space="preserve"
       style="font-style:normal;font-weight:normal;font-size:38.50318146px;line-height:0%;font-family:Ani;letter-spacing:0px;word-spacing:0px;fill:#ffffff;fill-opacity:1;stroke:#000000;stroke-width:0.84894168px;stroke-linecap:butt;stroke-linejoin:miter;stroke-opacity:1;-inkscape-font-specification:Ani;font-stretch:normal;font-variant:normal;"
       x="70.044235"
       y="334.11459"
       id="text917-4"><tspan
         sodipodi:role="line"
         id="tspan915-8"
         x="70.044235"
         y="334.11459"
         style="font-style:normal;font-variant:normal;font-weight:normal;font-stretch:normal;font-size:18.67671776px;line-height:1.25;font-family:Ani;-inkscape-font-specification:Ani;fill:#ffffff;fill-opacity:1;stroke:#000000;stroke-width:0.84894168px;stroke-opacity:1;">6</tspan></text>
    <text
       xml:space="preserve"
       style="font-style:normal;font-weight:normal;font-size:38.50318146px;line-height:0%;font-family:Ani;letter-spacing:0px;word-spacing:0px;fill:#ffffff;fill-opacity:1;stroke:#000000;stroke-width:0.84894168px;stroke-linecap:butt;stroke-linejoin:miter;stroke-opacity:1;-inkscape-font-specification:Ani;font-stretch:normal;font-variant:normal;"
       x="83.011292"
       y="334.6344"
       id="text917-0"><tspan
         sodipodi:role="line"
         id="tspan915-4"
         x="83.011292"
         y="334.6344"
         style="font-style:normal;font-variant:normal;font-weight:normal;font-stretch:normal;font-size:18.67671776px;line-height:1.25;font-family:Ani;-inkscape-font-specification:Ani;fill:#ffffff;fill-opacity:1;stroke:#000000;stroke-width:0.84894168px;stroke-opacity:1;">7</tspan></text>
    <text
       xml:space="preserve"
       style="font-style:normal;font-weight:normal;font-size:38.50318146px;line-height:0%;font-family:sans-serif;letter-spacing:0px;word-spacing:0px;fill:#ffffff;fill-opacity:1;stroke:#000000;stroke-width:0.84894168px;stroke-linecap:butt;stroke-linejoin:miter;stroke-opacity:1"
       x="2.8308213"
       y="295.48694"
       id="text917-2"><tspan
         sodipodi:role="line"
         id="tspan915-9"
         x="2.8308213"
         y="295.48694"
         style="font-style:normal;font-variant:normal;font-weight:normal;font-stretch:normal;font-size:18.67671776px;line-height:1.25;font-family:Ani;-inkscape-font-specification:Ani;fill:#ffffff;fill-opacity:1;stroke:#000000;stroke-width:0.84894168px;stroke-opacity:1">0</tspan></text>
    <text
       xml:space="preserve"
       style="font-style:normal;font-weight:normal;font-size:38.50318146px;line-height:0%;font-family:Ani;letter-spacing:0px;word-spacing:0px;fill:#ffffff;fill-opacity:1;stroke:#000000;stroke-width:0.84894168px;stroke-linecap:butt;stroke-linejoin:miter;stroke-opacity:1;-inkscape-font-specification:Ani;font-stretch:normal;font-variant:normal;"
       x="108.83413"
       y="334.11459"
       id="text917-6"><tspan
         sodipodi:role="line"
         id="tspan915-1"
         x="108.83413"
         y="334.11459"
         style="font-style:normal;font-variant:normal;font-weight:normal;font-stretch:normal;font-size:18.67671776px;line-height:1.25;font-family:Ani;-inkscape-font-specification:Ani;fill:#ffffff;fill-opacity:1;stroke:#000000;stroke-width:0.84894168px;stroke-opacity:1;">9</tspan></text>
    <text
       xml:space="preserve"
       style="font-style:normal;font-weight:normal;font-size:38.50318146px;line-height:0%;font-family:Ani;letter-spacing:0px;word-spacing:0px;fill:#ffffff;fill-opacity:1;stroke:#000000;stroke-width:0.84894168px;stroke-linecap:butt;stroke-linejoin:miter;stroke-opacity:1;-inkscape-font-specification:Ani;font-stretch:normal;font-variant:normal;"
       x="96.000046"
       y="334.11459"
       id="text917-04"><tspan
         sodipodi:role="line"
         id="tspan915-2"
         x="96.000046"
         y="334.11459"
         style="font-style:normal;font-variant:normal;font-weight:normal;font-stretch:normal;font-size:18.67671776px;line-height:1.25;font-family:Ani;-inkscape-font-specification:Ani;fill:#ffffff;fill-opacity:1;stroke:#000000;stroke-width:0.84894168px;stroke-opacity:1;">8</tspan></text>
    <text
       xml:space="preserve"
       style="font-style:normal;font-weight:normal;font-size:38.50318146px;line-height:0%;font-family:Ani;letter-spacing:0px;word-spacing:0px;fill:#ffffff;fill-opacity:1;stroke:#000000;stroke-width:0.84894168px;stroke-linecap:butt;stroke-linejoin:miter;stroke-opacity:1;-inkscape-font-specification:Ani;font-stretch:normal;font-variant:normal;"
       x="18.584044"
       y="334.11459"
       id="text917-22"><tspan
         sodipodi:role="line"
         id="tspan915-0"
         x="18.584044"
         y="334.11459"
         style="font-style:normal;font-variant:normal;font-weight:normal;font-stretch:normal;font-size:18.67671776px;line-height:1.25;font-family:Dyuthi;-inkscape-font-specification:Dyuthi;fill:#ffffff;fill-opacity:1;stroke:#000000;stroke-width:0.84894168px;stroke-opacity:1">2</tspan></text>
    <text
       xml:space="preserve"
       style="font-style:normal;font-weight:normal;font-size:38.50318146px;line-height:0%;font-family:Ani;letter-spacing:0px;word-spacing:0px;fill:#ffffff;fill-opacity:1;stroke:#000000;stroke-width:0.84894168px;stroke-linecap:butt;stroke-linejoin:miter;stroke-opacity:1;-inkscape-font-specification:Ani;font-stretch:normal;font-variant:normal;"
       x="43.91135"
       y="334.51584"
       id="text917-5"><tspan
         sodipodi:role="line"
         id="tspan915-5"
         x="43.91135"
         y="334.51584"
         style="font-style:normal;font-variant:normal;font-weight:normal;font-stretch:normal;font-size:18.67671776px;line-height:1.25;font-family:Ani;-inkscape-font-specification:Ani;fill:#ffffff;fill-opacity:1;stroke:#000000;stroke-width:0.84894168px;stroke-opacity:1;">4</tspan></text>
    <text
       xml:space="preserve"
       style="font-style:normal;font-weight:normal;font-size:38.50318146px;line-height:0%;font-family:Ani;letter-spacing:0px;word-spacing:0px;fill:#ffffff;fill-opacity:1;stroke:#000000;stroke-width:0.84894168px;stroke-linecap:butt;stroke-linejoin:miter;stroke-opacity:1;-inkscape-font-specification:Ani;font-stretch:normal;font-variant:normal;"
       x="57.775196"
       y="334.11459"
       id="text917-29"><tspan
         sodipodi:role="line"
         id="tspan915-02"
         x="57.775196"
         y="334.11459"
         style="font-style:normal;font-variant:normal;font-weight:normal;font-stretch:normal;font-size:18.67671776px;line-height:1.25;font-family:Ani;-inkscape-font-specification:Ani;fill:#ffffff;fill-opacity:1;stroke:#000000;stroke-width:0.84894168px;stroke-opacity:1;">5</tspan></text>
    <text
       xml:space="preserve"
       style="font-style:normal;font-weight:normal;font-size:38.50318146px;line-height:0%;font-family:Dyuthi;letter-spacing:0px;word-spacing:0px;fill:#ffffff;fill-opacity:1;stroke:#000000;stroke-width:0.84894168px;stroke-linecap:butt;stroke-linejoin:miter;stroke-opacity:1;-inkscape-font-specification:Dyuthi;font-stretch:normal;font-variant:normal;"
       x="1.9110255"
       y="333.90485"
       id="text917-22-8"><tspan
         sodipodi:role="line"
         id="tspan915-0-3"
         x="1.9110255"
         y="333.90485"
         style="font-style:normal;font-variant:normal;font-weight:normal;font-stretch:normal;font-size:18.67671776px;line-height:1.25;font-family:Dyuthi;-inkscape-font-specification:Dyuthi;fill:#ffffff;fill-opacity:1;stroke:#000000;stroke-width:0.84894168px;stroke-opacity:1;">1</tspan></text>
    <g
       id="g3867"
       transform="matrix(1.3372546,0,0,1.3372546,5.4050854,-122.87388)" />
    <path
       d="M 0,0 V 16.933333 M 2.6458333,0 V 16.933333 M 5.2916666,0 V 16.933333 M 7.9374998,0 V 16.933333 M 10.583333,0 V 16.933333 M 13.229166,0 V 16.933333 M 15.875,0 V 16.933333 M 0,0 H 16.933333 M 0,2.6458333 H 16.933333 M 0,5.2916666 H 16.933333 M 0,7.9374998 H 16.933333 M 0,10.583333 H 16.933333 M 0,13.229166 H 16.933333 M 0,15.875 h 16.933333"
       style="fill:none;stroke:#000000;stroke-width:0.26458299px"
       id="path1084"
       inkscape:connector-curvature="0" />
    <path
       d="M 0,0 V 16.933333 M 2.6458333,0 V 16.933333 M 5.2916666,0 V 16.933333 M 7.9374998,0 V 16.933333 M 10.583333,0 V 16.933333 M 13.229166,0 V 16.933333 M 15.875,0 V 16.933333 M 0,0 H 16.933333 M 0,2.6458333 H 16.933333 M 0,5.2916666 H 16.933333 M 0,7.9374998 H 16.933333 M 0,10.583333 H 16.933333 M 0,13.229166 H 16.933333 M 0,15.875 h 16.933333"
       style="fill:none;stroke:#000000;stroke-width:0.26458299px"
       id="path1086"
       inkscape:connector-curvature="0" />
    <path
       d="M 0,0 V 16.933332 M 2.6458331,0 V 16.933332 M 5.2916663,0 V 16.933332 M 7.9374994,0 V 16.933332 M 10.583333,0 V 16.933332 M 13.229166,0 V 16.933332 M 15.874999,0 V 16.933332 M 18.520832,0 V 16.933332 M 21.166665,0 V 16.933332 M 23.812498,0 V 16.933332 M 26.458331,0 V 16.933332 M 29.104164,0 V 16.933332 M 31.749997,0 V 16.933332 M 34.395831,0 V 16.933332 M 37.041664,0 V 16.933332 M 39.687497,0 V 16.933332 M 42.33333,0 V 16.933332 M 44.979163,0 V 16.933332 M 47.624996,0 V 16.933332 M 50.270829,0 V 16.933332 M 52.916663,0 V 16.933332 M 55.562496,0 V 16.933332 M 58.208329,0 V 16.933332 M 60.854162,0 V 16.933332 M 63.499995,0 V 16.933332 M 66.145828,0 V 16.933332 M 68.791661,0 V 16.933332 M 71.437494,0 V 16.933332 M 74.083328,0 V 16.933332 M 76.729161,0 V 16.933332 M 79.374994,0 V 16.933332 M 82.020827,0 V 16.933332 M 84.66666,0 V 16.933332 M 87.312493,0 V 16.933332 M 89.958326,0 V 16.933332 M 92.604159,0 V 16.933332 M 95.249992,0 V 16.933332 M 97.895826,0 V 16.933332 M 100.54166,0 V 16.933332 M 103.18749,0 V 16.933332 M 105.83332,0 V 16.933332 M 108.47916,0 V 16.933332 M 111.12499,0 V 16.933332 M 113.77082,0 V 16.933332 M 116.41666,0 V 16.933332 M 119.06249,0 V 16.933332 M 121.70832,0 V 16.933332 M 124.35416,0 V 16.933332 M 126.99999,0 V 16.933332 M 129.64582,0 V 16.933332 M 132.29166,0 V 16.933332 M 134.93749,0 V 16.933332 M 137.58332,0 V 16.933332 M 140.22916,0 V 16.933332 M 142.87499,0 V 16.933332 M 145.52082,0 V 16.933332 M 148.16665,0 V 16.933332 M 150.81249,0 V 16.933332 M 153.45832,0 V 16.933332 M 156.10415,0 V 16.933332 M 158.74999,0 V 16.933332 M 161.39582,0 V 16.933332 M 164.04165,0 V 16.933332 M 166.68749,0 V 16.933332 M 169.33332,0 V 16.933332 M 0,0 H 169.33332 M 0,2.6458331 H 169.33332 M 0,5.2916663 H 169.33332 M 0,7.9374994 H 169.33332 M 0,10.583333 H 169.33332 M 0,13.229166 H 169.33332 M 0,15.874999 h 169.33332"
       style="fill:none;stroke:#000000;stroke-width:0.26458299px"
       id="path837"
       inkscape:connector-curvature="0" />
    <path
       d="M 0,0 V 16.933332 M 5.0799998,0 V 16.933332 M 10.16,0 V 16.933332 M 15.239999,0 V 16.933332 M 20.319999,0 V 16.933332 M 25.399999,0 V 16.933332 M 30.479999,0 V 16.933332 M 35.559999,0 V 16.933332 M 40.639998,0 V 16.933332 M 45.719998,0 V 16.933332 M 50.799998,0 V 16.933332 M 55.879998,0 V 16.933332 M 60.959998,0 V 16.933332 M 66.039997,0 V 16.933332 M 71.119997,0 V 16.933332 M 76.199997,0 V 16.933332 M 81.279997,0 V 16.933332 M 86.359997,0 V 16.933332 M 91.439996,0 V 16.933332 M 96.519996,0 V 16.933332 M 101.6,0 V 16.933332 M 106.68,0 V 16.933332 M 111.76,0 V 16.933332 M 116.84,0 V 16.933332 M 121.92,0 V 16.933332 M 127,0 V 16.933332 M 132.07999,0 V 16.933332 M 137.15999,0 V 16.933332 M 142.23999,0 V 16.933332 M 147.31999,0 V 16.933332 M 152.39999,0 V 16.933332 M 157.47999,0 V 16.933332 M 162.55999,0 V 16.933332 M 167.63999,0 V 16.933332 M 0,0 H 169.33332 M 0,3.8629165 H 169.33332 M 0,7.7258329 H 169.33332 M 0,11.588749 H 169.33332 M 0,15.451666 h 169.33332"
       style="fill:none;stroke:#000000;stroke-width:1.11125004px"
       id="path845"
       inkscape:connector-curvature="0" />
    <path
       d="M 0,0 V 16.933332 M 5.0799998,0 V 16.933332 M 10.16,0 V 16.933332 M 15.239999,0 V 16.933332 M 20.319999,0 V 16.933332 M 25.399999,0 V 16.933332 M 30.479999,0 V 16.933332 M 35.559999,0 V 16.933332 M 40.639998,0 V 16.933332 M 45.719998,0 V 16.933332 M 50.799998,0 V 16.933332 M 55.879998,0 V 16.933332 M 60.959998,0 V 16.933332 M 66.039997,0 V 16.933332 M 71.119997,0 V 16.933332 M 76.199997,0 V 16.933332 M 81.279997,0 V 16.933332 M 86.359997,0 V 16.933332 M 91.439996,0 V 16.933332 M 96.519996,0 V 16.933332 M 101.6,0 V 16.933332 M 106.68,0 V 16.933332 M 111.76,0 V 16.933332 M 116.84,0 V 16.933332 M 121.92,0 V 16.933332 M 127,0 V 16.933332 M 132.07999,0 V 16.933332 M 137.15999,0 V 16.933332 M 142.23999,0 V 16.933332 M 147.31999,0 V 16.933332 M 152.39999,0 V 16.933332 M 157.47999,0 V 16.933332 M 162.55999,0 V 16.933332 M 167.63999,0 V 16.933332 M 0,0 H 169.33332 M 0,3.8629165 H 169.33332 M 0,7.7258329 H 169.33332 M 0,11.588749 H 169.33332 M 0,15.451666 h 169.33332"
       style="fill:none;stroke:#000000;stroke-width:1.11125004px"
       id="path847"
       inkscape:connector-curvature="0" />
  </g>
</svg>
